<svg xmlns="http://www.w3.org/2000/svg" viewBox="0 0 398 196" width="398" height="196">
<rect width="100%" height="100%" fill="#0a0a0b"/>
<path d="M 62.0 42.0 L 36.0 42.0 L 36.0 68.0" fill="none" stroke="#7c7a74" stroke-width="2.0"/>
<path d="M 336.5 42.0 L 362.5 42.0 L 362.5 68.0" fill="none" stroke="#7c7a74" stroke-width="2.0"/>
<path d="M 62.0 145.9384 L 36.0 145.9 L 36.0 119.9" fill="none" stroke="#7c7a74" stroke-width="2.0"/>
<path d="M 336.5 145.9384 L 362.5 145.9 L 362.5 119.9" fill="none" stroke="#7c7a74" stroke-width="2.0"/>
<g transform="translate(64.00,0)" fill="#F3E9E2"><g transform="translate(0.00,103.20) scale(0.02800,-0.02800)"><path d="M985 380 883 347 1259 1309Q1278 1360 1304.5 1380.0Q1331 1400 1377 1400H1666Q1697 1400 1712.5 1388.0Q1728 1376 1728 1354Q1728 1335 1717.5 1322.5Q1707 1310 1685 1303L1634 1289Q1600 1280 1588.0 1262.0Q1576 1244 1578 1204L1654 181Q1656 147 1668.5 133.0Q1681 119 1711 110L1761 97Q1782 90 1791.5 78.0Q1801 66 1801 48Q1801 28 1786.0 14.0Q1771 0 1740 0H1258Q1227 0 1211.5 12.5Q1196 25 1196 46Q1196 64 1205.5 76.5Q1215 89 1239 97L1290 110Q1325 120 1337.5 135.0Q1350 150 1348 181L1265 1232L1358 1238L931 137Q913 89 894.0 74.5Q875 60 849 60Q830 60 814.0 65.5Q798 71 784.5 88.0Q771 105 756 141L323 1209L412 1241L325 211Q322 168 343.5 146.0Q365 124 403 108L452 91Q468 84 477.0 74.5Q486 65 486 48Q486 26 471.0 13.0Q456 0 425 0H107Q76 0 61.0 12.5Q46 25 46 46Q46 67 59.0 78.5Q72 90 93 98L133 112Q167 123 187.5 146.0Q208 169 211 212L294 1186Q298 1233 284.5 1256.5Q271 1280 237 1289L188 1302Q165 1309 154.0 1321.0Q143 1333 143 1353Q143 1400 206 1400H491Q534 1400 560.5 1382.5Q587 1365 607 1313Z"/></g>
<g transform="translate(52.44,103.20) scale(0.02800,-0.02800)"><path d="M562 167Q562 145 575.0 131.0Q588 117 612 110L669 97Q711 84 711 46Q711 25 696.5 12.5Q682 0 651 0H164Q133 0 118.5 12.5Q104 25 104 46Q104 84 146 97L203 110Q227 117 240.0 131.0Q253 145 253 167V1233Q253 1255 240.0 1269.0Q227 1283 203 1290L146 1303Q104 1316 104 1354Q104 1376 118.5 1388.0Q133 1400 164 1400H651Q682 1400 696.5 1388.0Q711 1376 711 1354Q711 1316 669 1303L612 1290Q588 1283 575.0 1269.0Q562 1255 562 1233Z"/></g>
<g transform="translate(75.82,103.20) scale(0.02800,-0.02800)"><path d="M1339 27Q1339 -7 1325.5 -22.0Q1312 -37 1283 -37Q1258 -37 1238.5 -21.0Q1219 -5 1202.5 16.0Q1186 37 1170.0 53.0Q1154 69 1136 69Q1115 69 1086.5 53.0Q1058 37 1016.5 16.5Q975 -4 915.5 -20.5Q856 -37 772 -37Q610 -37 482.0 16.5Q354 70 264.0 167.5Q174 265 126.5 399.5Q79 534 79 697Q79 856 132.0 991.0Q185 1126 280.0 1225.5Q375 1325 502.5 1380.0Q630 1435 781 1435Q888 1435 955.0 1415.0Q1022 1395 1061.0 1375.5Q1100 1356 1122 1356Q1148 1356 1161.0 1373.0Q1174 1390 1188.0 1407.5Q1202 1425 1228 1425Q1246 1425 1257.5 1413.5Q1269 1402 1277 1375L1382 1029Q1389 1006 1377.5 988.0Q1366 970 1343 965Q1319 960 1300.0 969.5Q1281 979 1270 1003Q1216 1125 1146.5 1195.5Q1077 1266 995.5 1296.5Q914 1327 820 1327Q693 1327 596.5 1256.5Q500 1186 445.5 1057.5Q391 929 391 754Q391 545 452.5 400.0Q514 255 620.5 180.0Q727 105 862 105Q909 105 946.0 114.0Q983 123 1008.5 140.0Q1034 157 1047.5 182.0Q1061 207 1061 238V479Q1061 503 1049.0 515.0Q1037 527 1002 535L939 548Q915 554 901.5 566.0Q888 578 888 596Q888 616 903.5 628.0Q919 640 950 640H1414Q1446 640 1461.0 628.0Q1476 616 1476 596Q1476 579 1466.0 568.0Q1456 557 1433 549L1394 539Q1366 530 1352.5 517.5Q1339 505 1339 479Z"/></g>
<g transform="translate(119.25,103.20) scale(0.02800,-0.02800)"><path d="M383 715H1248V611H383ZM562 167Q562 145 575.0 131.0Q588 117 612 110L669 97Q711 84 711 46Q711 25 696.5 12.5Q682 0 651 0H164Q133 0 118.5 12.5Q104 25 104 46Q104 84 146 97L203 110Q228 117 240.5 131.0Q253 145 253 167V1233Q253 1255 240.5 1269.0Q228 1283 203 1290L146 1303Q104 1316 104 1354Q104 1376 118.5 1388.0Q133 1400 164 1400H651Q682 1400 696.5 1388.0Q711 1376 711 1354Q711 1316 669 1303L612 1290Q588 1283 575.0 1269.0Q562 1255 562 1233ZM1451 167Q1451 145 1464.0 131.0Q1477 117 1501 110L1558 97Q1600 84 1600 46Q1600 25 1585.5 12.5Q1571 0 1540 0H1053Q1022 0 1007.0 12.5Q992 25 992 46Q992 84 1034 97L1091 110Q1116 117 1128.5 131.0Q1141 145 1141 167V1233Q1141 1255 1128.5 1269.0Q1116 1283 1091 1290L1034 1303Q992 1316 992 1354Q992 1376 1007.0 1388.0Q1022 1400 1053 1400H1540Q1571 1400 1585.5 1388.0Q1600 1376 1600 1354Q1600 1316 1558 1303L1501 1290Q1477 1283 1464.0 1269.0Q1451 1255 1451 1233Z"/></g>
<g transform="translate(167.52,103.20) scale(0.02800,-0.02800)"><path d="M346 1400H1050Q1087 1400 1111.0 1409.5Q1135 1419 1153.5 1428.0Q1172 1437 1194 1437Q1227 1437 1244.0 1421.0Q1261 1405 1271 1367L1338 1044Q1344 1016 1334.0 998.0Q1324 980 1300 975Q1277 971 1259.5 979.5Q1242 988 1230 1013Q1178 1130 1140.5 1190.5Q1103 1251 1065.5 1273.0Q1028 1295 975 1295H853V167Q853 145 866.0 131.0Q879 117 903 110L960 97Q1002 84 1002 46Q1002 0 941 0H454Q424 0 409.0 12.5Q394 25 394 46Q394 84 436 97L493 110Q518 117 530.5 131.0Q543 145 543 167V1295H421Q369 1295 331.0 1273.0Q293 1251 255.5 1190.5Q218 1130 166 1013Q154 988 136.5 979.5Q119 971 96 975Q72 980 62.5 998.0Q53 1016 58 1044L125 1367Q135 1405 152.0 1421.0Q169 1437 202 1437Q224 1437 242.5 1428.0Q261 1419 285.0 1409.5Q309 1400 346 1400Z"/></g>
<g transform="translate(207.17,103.20) scale(0.02800,-0.02800)"><path d="M836 447 592 404 167 1229Q151 1262 137.5 1275.0Q124 1288 102 1296L71 1306Q48 1313 39.0 1325.5Q30 1338 30 1354Q30 1376 45.5 1388.0Q61 1400 92 1400H571Q603 1400 619.0 1388.0Q635 1376 635 1354Q635 1316 587 1303L539 1294Q502 1285 494.5 1268.5Q487 1252 504 1216L830 536L727 482L1071 1174Q1093 1219 1082.5 1250.0Q1072 1281 1024 1295L973 1306Q956 1311 946.0 1323.0Q936 1335 936 1354Q936 1376 951.0 1388.0Q966 1400 997 1400H1300Q1331 1400 1346.0 1388.0Q1361 1376 1361 1354Q1361 1337 1352.5 1326.0Q1344 1315 1322 1306L1306 1300Q1286 1292 1269.0 1278.5Q1252 1265 1234.5 1238.5Q1217 1212 1194 1164ZM552 512H861V167Q861 145 874.0 131.0Q887 117 911 110L968 97Q1010 84 1010 46Q1010 25 995.5 12.5Q981 0 950 0H463Q432 0 417.5 12.5Q403 25 403 46Q403 84 445 97L502 110Q527 117 539.5 131.0Q552 145 552 167Z"/></g></g>
<circle cx="327.20" cy="83.60" r="7.28" fill="#E11B2E"/>
<g transform="translate(64.00,0)" fill="#F3E9E2"><g transform="translate(0.00,131.94) scale(0.01316,-0.01316)"><path d="M67.00096297264099 729H381.1352218091488Q503.3038381636143 729 569.6340205520391 667.500796854496Q635.964202940464 606.001593708992 635.964202940464 494.50417920947075Q635.964202940464 420.98263040184975 605.4317534416914 368.3932393193245Q574.8993039429188 315.80384823679924 517.3457973152399 288.30760020017624Q459.79229068756104 260.81135216355324 380.7066329419613 260.81135216355324H185.91102597117424V367.49195179343224H361.93175426125526Q429.329681456089 367.49195179343224 465.1956838667393 399.87968611717224Q501.0616862773895 432.26742044091225 501.0616862773895 491.845638692379Q501.0616862773895 551.548699259758 465.1956838667393 583.9153552502394Q429.329681456089 616.2820112407207 361.93175426125526 616.2820112407207H180.33961483836174L198.53800791502 633.9961225688457V0H67.00096297264099Z"/></g>
<g transform="translate(23.49,131.94) scale(0.01316,-0.01316)"><path d="M68.86544290184975 729H421.57412549853325Q531.038753926754 729 592.8424182385206 678.0714721679688Q654.6460825502872 627.1429443359375 654.6460825502872 530.857421875Q654.6460825502872 463.1504482626915 619.7866643220186 417.361726552248Q584.92724609375 371.5730048418045 520.9299028217793 354.114206969738V347.89358350634575Q582.3497178554535 336.55224609375 610.065660238266 301.6799638569355Q637.7816026210785 266.807681620121 637.7816026210785 203.571533203125V82.93541637063026Q637.7816026210785 56.03608196973801 639.9304995834827 36.791658192873Q642.079396545887 17.547234416007996 649.9244248867035 0H517.3873799443245Q511.2565850019455 12.839075714349747 508.53627690672874 33.875218719244Q505.815968811512 54.91136172413826 505.815968811512 84.07836070656776V179.3809306025505Q505.815968811512 214.66098871827126 495.12707601487637 237.37850360572338Q484.43818321824074 260.0960184931755 458.73037292063236 271.738962829113Q433.022562623024 283.3819071650505 388.36952885985374 283.3819071650505H187.775505900383V390.427978515625H391.662109375Q456.8929951786995 390.427978515625 488.35819412767887 421.6335881501436Q519.8233930766582 452.83919778466225 519.8233930766582 507.429443359375Q519.8233930766582 564.7158203125 485.8732587993145 591.7161865234375Q451.92312452197075 618.716552734375 391.662109375 618.716552734375H200.40248784422874V0H68.86544290184975Z"/></g>
<g transform="translate(47.54,131.94) scale(0.01316,-0.01316)"><path d="M49.534186482429504 364.5714111328125Q49.534186482429504 479.745669901371 91.69439615309238 563.9599643349648Q133.85460582375526 648.1742587685585 211.87054279446602 692.944246083498Q289.8864797651768 737.7142333984375 394.3237719098727 737.7142333984375Q500.03576735258105 737.7142333984375 577.9667167693376 692.7299516499043Q655.8976661860943 647.745669901371 698.1977218091488 563.745669901371Q740.4977774322033 479.745669901371 740.4977774322033 364.5714111328125Q740.4977774322033 249.397152364254 698.1977218091488 164.97160084545612Q655.8976661860943 80.54604932665825 577.5675337184502 35.701613530516624Q499.2374012508061 -9.142822265625 394.7855043297808 -9.142822265625Q289.4578908979893 -9.142822265625 211.65624836087227 35.84145948290825Q133.85460582375526 80.8257412314415 91.69439615309238 165.3257412314415Q49.534186482429504 249.8257412314415 49.534186482429504 364.5714111328125ZM605.1291607022285 364.37525507229475Q605.1291607022285 446.34329733252525 579.8317762166262 504.3311047106981Q554.5343917310238 562.318912088871 507.2188012863581 592.6012717336416Q459.9032108416924 622.8836313784122 394.5904304385185 622.8836313784122Q329.36226243009935 622.8836313784122 282.3645198356647 592.5734252929688Q235.36677724123 562.2632192075253 210.02279071509838 504.30325827002525Q184.67880418896675 446.34329733252525 184.67880418896675 364.37525507229475Q184.67880418896675 283.079216837883 210.02279071509838 224.880152374506Q235.36677724123 166.681087911129 282.51565933420795 136.3708818256855Q329.6645414271859 106.060675740242 394.8498081882252 106.060675740242Q460.1839719116688 106.060675740242 507.4990277737379 136.55732981860638Q554.814083635807 167.05398389697075 579.9716221690178 225.06660036742687Q605.1291607022285 283.079216837883 605.1291607022285 364.37525507229475Z"/></g>
<g transform="translate(72.77,131.94) scale(0.01316,-0.01316)"><path d="M67.00096297264099 729H364.43981769680977Q467.07415659200575 729 541.0281497895718 684.4600864052773Q614.9821429871378 639.9201728105545 653.9914623063235 557.7058783769608Q693.0007816255093 475.491583943367 693.0007816255093 364Q693.0007816255093 252.70693120360374 653.9914623063235 170.60767363011837Q614.9821429871378 88.508416056633 541.0281497895718 44.2542080283165Q467.07415659200575 0 364.43981769680977 0H67.00096297264099ZM558.2847527861595 366.7142333984375Q558.2847527861595 449.128584086895 532.8482764600207 504.843427836895Q507.4118001338818 560.558271586895 459.84103176523024 588.2088843286037Q412.27026339657874 615.8594970703125 344.3847351670265 615.8594970703125H198.25831601023674V113.569091796875H344.3847351670265Q412.50533585218216 113.569091796875 460.29289802212077 142.021189391613Q508.08046019205943 170.473286986351 533.1826064891095 226.9459898620844Q558.2847527861595 283.41869273781776 558.2847527861595 366.7142333984375Z"/></g>
<g transform="translate(97.14,131.94) scale(0.01316,-0.01316)"><path d="M56.751320749521255 273.7138671875V729H188.28836569190025V273.3652275800705Q188.28836569190025 193.189748108387 233.15449896884166 150.347861379385Q278.0206322457831 107.505974650383 357.23209127783775 107.505974650383Q439.26339891552925 107.505974650383 482.71359422802925 151.43511283397675Q526.1637895405293 195.3642510175705 526.1637895405293 273.3652275800705V729H657.2722456157207V273.7138671875Q657.2722456157207 141.5712890625 578.0092307180166 66.2142333984375Q498.7462158203125 -9.142822265625 356.08926901221275 -9.142822265625Q262.8066513125713 -9.142822265625 195.33691940628566 24.182735860347748Q127.8671875 57.508293986320496 92.30925412476063 121.06386479735374Q56.751320749521255 184.619435608387 56.751320749521255 273.7138671875Z"/></g>
<g transform="translate(121.37,131.94) scale(0.01316,-0.01316)"><path d="M49.534186482429504 364.5714111328125Q49.534186482429504 480.1427001953125 92.27186077833176 564.3569946289062Q135.009535074234 648.5712890625 213.1653179973364 693.1427612304688Q291.32110092043877 737.7142333984375 395.42950615286827 737.7142333984375Q482.3982629477978 737.7142333984375 551.618667691946 706.6526277214289Q620.8390724360943 675.5910220444202 663.7752618789673 618.2015355080366Q706.7114513218403 560.812048971653 717.5311178565025 483.449435710907H582.7668204009533Q573.3757427334785 525.4277784228325 547.8925850391388 557.1035198420286Q522.409427344799 588.7792612612247 483.2004183679819 606.3907902985811Q443.9914093911648 624.0023193359375 395.42950615286827 624.0023193359375Q330.804406106472 624.0023193359375 283.4239527732134 594.001953125Q236.04349943995476 564.0015869140625 210.36115181446075 505.71533203125Q184.67880418896675 447.4290771484375 184.67880418896675 364.5714111328125Q184.67880418896675 281.51522997021675 210.50099776685238 223.04252709448338Q236.323191344738 164.56982421875 283.63824720680714 134.5694580078125Q330.95330306887627 104.569091796875 395.42950615286827 104.569091796875Q443.1463810503483 104.569091796875 482.64109559357166 121.928775370121Q522.135810136795 139.288458943367 548.1159304827452 171.29954531788826Q574.0960508286953 203.31063169240952 582.7668204009533 246.28897440433502H717.5311178565025Q707.0092452466488 168.57894903421402 664.063351213932 110.95337511599064Q621.1174571812153 53.32780119776726 551.9346034675837 22.09248946607113Q482.751749753952 -9.142822265625 395.42950615286827 -9.142822265625Q290.89251205325127 -9.142822265625 212.95102356374264 35.6429443359375Q135.009535074234 80.4287109375 92.27186077833176 164.9287109375Q49.534186482429504 249.4287109375 49.534186482429504 364.5714111328125Z"/></g>
<g transform="translate(146.14,131.94) scale(0.01316,-0.01316)"><path d="M243.39990562200546 627.57373046875H374.93695056438446V0H243.39990562200546ZM15.05934140086174 729H605.9601896107197V614.145263671875H15.05934140086174Z"/></g>
<g transform="translate(169.14,131.94) scale(0.01316,-0.01316)"><path d="M68.86544290184975 729H200.7753838300705V0H68.86544290184975Z"/></g>
<g transform="translate(187.53,131.94) scale(0.01316,-0.01316)"><path d="M49.534186482429504 364.5714111328125Q49.534186482429504 479.745669901371 91.69439615309238 563.9599643349648Q133.85460582375526 648.1742587685585 211.87054279446602 692.944246083498Q289.8864797651768 737.7142333984375 394.3237719098727 737.7142333984375Q500.03576735258105 737.7142333984375 577.9667167693376 692.7299516499043Q655.8976661860943 647.745669901371 698.1977218091488 563.745669901371Q740.4977774322033 479.745669901371 740.4977774322033 364.5714111328125Q740.4977774322033 249.397152364254 698.1977218091488 164.97160084545612Q655.8976661860943 80.54604932665825 577.5675337184502 35.701613530516624Q499.2374012508061 -9.142822265625 394.7855043297808 -9.142822265625Q289.4578908979893 -9.142822265625 211.65624836087227 35.84145948290825Q133.85460582375526 80.8257412314415 91.69439615309238 165.3257412314415Q49.534186482429504 249.8257412314415 49.534186482429504 364.5714111328125ZM605.1291607022285 364.37525507229475Q605.1291607022285 446.34329733252525 579.8317762166262 504.3311047106981Q554.5343917310238 562.318912088871 507.2188012863581 592.6012717336416Q459.9032108416924 622.8836313784122 394.5904304385185 622.8836313784122Q329.36226243009935 622.8836313784122 282.3645198356647 592.5734252929688Q235.36677724123 562.2632192075253 210.02279071509838 504.30325827002525Q184.67880418896675 446.34329733252525 184.67880418896675 364.37525507229475Q184.67880418896675 283.079216837883 210.02279071509838 224.880152374506Q235.36677724123 166.681087911129 282.51565933420795 136.3708818256855Q329.6645414271859 106.060675740242 394.8498081882252 106.060675740242Q460.1839719116688 106.060675740242 507.4990277737379 136.55732981860638Q554.814083635807 167.05398389697075 579.9716221690178 225.06660036742687Q605.1291607022285 283.079216837883 605.1291607022285 364.37525507229475Z"/></g>
<g transform="translate(212.75,131.94) scale(0.01316,-0.01316)"><path d="M69.145134806633 729H225.61953401565552L554.1651730835438 192.3334061205387H560.385796546936L555.0417599976063 420.11848106980324V729H682.7203997075558V0H529.964202940464L203.3977627158165 530.7659947276115H197.17713925242424L201.89407178759575 319.45293006300926V0H69.145134806633Z"/></g>
<g transform="translate(237.48,131.94) scale(0.01316,-0.01316)"><path d="M30.695622712373734 222.51917019486427H164.67328384518623Q168.61171799898148 160.20662778615952 207.8432133346796 126.81657072901726Q247.07470867037773 93.426513671875 324.5690985918045 93.426513671875Q392.17026606202126 93.426513671875 429.83481684327126 120.44877369701862Q467.49936762452126 147.47103372216225 467.49936762452126 197.83255514502525Q467.49936762452126 233.3924696445465 451.29533049464226 254.57860906422138Q435.09129336476326 275.76474848389626 398.37206949293613 289.29883152246475Q361.652845621109 302.83291456103325 292.80141362547874 314.8585205078125Q208.73500058054924 329.5728759765625 155.599621206522 354.35244581103325Q102.46424183249474 379.132015645504 75.46495644748211 419.98901027441025Q48.46567106246948 460.8460049033165 48.46567106246948 522.572265625Q48.46567106246948 587.6095326840878 81.15132220089436 636.3950551450253Q113.83697333931923 685.1805776059628 174.54060442745686 711.3759943693876Q235.24423551559448 737.5714111328125 317.0184834599495 737.5714111328125Q396.2441474199295 737.5714111328125 454.91322499513626 712.2120115309954Q513.582302570343 686.8526119291782 546.1566289812326 640.084869325161Q578.7309553921223 593.3171267211437 582.0919037163258 529.9364114403725H449.487138569355Q443.4856296777725 583.3675621449947 407.4640418589115 609.7441626489162Q371.4424540400505 636.1207631528378 312.447072327137 636.1207631528378Q251.92716127634048 636.1207631528378 217.95584779977798 610.778937458992Q183.98453432321548 585.4371117651463 183.98453432321548 539.5718994140625Q183.98453432321548 506.42251417040825 199.62384876608849 487.2763493806124Q215.2631632089615 468.1301845908165 252.32439927756786 455.7074873149395Q289.38563534617424 443.2847900390625 362.22829350829124 430.43356493115425Q441.105556845665 416.483103454113 492.2034250199795 394.1957525163889Q543.301293194294 371.9084015786648 573.3056216537952 327.3957605063915Q603.3099501132965 282.88311943411827 603.3099501132965 207.70619878172874Q603.3099501132965 141.4596591591835 570.1182242780924 92.50340695679188Q536.9264984428883 43.54715475440025 473.3935360610485 17.202166244387627Q409.86057367920876 -9.142822265625 319.9857822060585 -9.142822265625Q228.15107384324074 -9.142822265625 163.92630338668823 19.62337325513363Q99.70153293013573 48.38956877589226 66.50010250508785 100.28513000905514Q33.29867208003998 152.18069124221802 30.695622712373734 222.51917019486427Z"/></g></g>
</svg>