<svg xmlns="http://www.w3.org/2000/svg" viewBox="0 0 1280 720" role="img" aria-labelledby="title desc">
  <title id="title">Andrew Webber.dev animated glow logo</title>
  <desc id="desc">Screen-only animated SVG with glow and scanline effects.</desc>
  <defs>
    <radialGradient id="halo" cx="50%" cy="54%" r="58%">
      <stop offset="0%" stop-color="#00ff41" stop-opacity="0.22"/>
      <stop offset="62%" stop-color="#00ff41" stop-opacity="0"/>
    </radialGradient>
    <linearGradient id="steel" x1="0" y1="0" x2="0" y2="1">
      <stop offset="0%" stop-color="#b8b8c4"/>
      <stop offset="24%" stop-color="#ffffff"/>
      <stop offset="52%" stop-color="#d8d8e0"/>
      <stop offset="100%" stop-color="#6c6c78"/>
    </linearGradient>
    <linearGradient id="green" x1="0" y1="0" x2="0" y2="1">
      <stop offset="0%" stop-color="#aaffc0"/>
      <stop offset="18%" stop-color="#00ff5c"/>
      <stop offset="64%" stop-color="#00d83a"/>
      <stop offset="100%" stop-color="#006e1d"/>
    </linearGradient>
    <filter id="glow" x="-20%" y="-20%" width="140%" height="140%">
      <feGaussianBlur stdDeviation="9" result="blur"/>
      <feColorMatrix in="blur" type="matrix" values="0 0 0 0 0  0 1 0 0 1  0 0 0 0 0.25  0 0 0 0.72 0" result="greenBlur"/>
      <feMerge>
        <feMergeNode in="greenBlur"/>
        <feMergeNode in="SourceGraphic"/>
      </feMerge>
    </filter>
    <style>
      @keyframes pulse { 0%,100% { opacity: .78; } 50% { opacity: 1; } }
      @keyframes caret { 0%,49% { opacity: 1; } 50%,100% { opacity: .2; } }
      @keyframes sweep { 0% { transform: translateY(-180px); opacity: 0; } 15%,85% { opacity: 1; } 100% { transform: translateY(720px); opacity: 0; } }
      .pulse { animation: pulse 4.5s ease-in-out infinite; }
      .caret { animation: caret 1.1s steps(2, end) infinite; }
      .sweep { animation: sweep 5.8s linear infinite; }
    </style>
  </defs>
  <rect width="1280" height="720" fill="#0f0f1a"/>
  <path d="M0 0H1280V720H0Z" fill="url(#halo)" class="pulse"/>
  <g opacity=".18" stroke="#ffffff" stroke-width="1">
    <path d="M0 80H1280M0 160H1280M0 240H1280M0 320H1280M0 400H1280M0 480H1280M0 560H1280M0 640H1280"/>
    <path d="M80 0V720M160 0V720M240 0V720M320 0V720M400 0V720M480 0V720M560 0V720M640 0V720M720 0V720M800 0V720M880 0V720M960 0V720M1040 0V720M1120 0V720M1200 0V720"/>
  </g>
  <rect class="sweep" width="1280" height="150" fill="#00ff41" opacity=".12"/>
  <g filter="url(#glow)">
    <g font-family="Inter, Geist, Arial Black, Arial, sans-serif" font-weight="900" letter-spacing="-18">
      <text x="108" y="304" font-size="172" fill="url(#steel)">Andrew</text>
      <text x="108" y="462" font-size="172" fill="url(#green)">Webber</text>
    </g>
    <g font-family="Geist Mono, ui-monospace, SFMono-Regular, Menlo, Consolas, monospace" font-weight="600">
      <text x="980" y="370" font-size="56" fill="#a6a7af">.dev</text>
      <rect class="caret" x="1142" y="354" width="38" height="7" fill="#00ff41"/>
    </g>
  </g>
</svg>
